<mxfile host="app.diagrams.net" modified="2023-04-24T08:03:16.789Z" agent="Mozilla/5.0 (Windows NT 10.0; Win64; x64; rv:109.0) Gecko/20100101 Firefox/112.0" etag="GOXJMpyjgQ_LE4sWvr7Z" version="21.2.1" type="github">
  <diagram id="xYeYBjyA4uRr6rHgdfq1" name="Page-1">
    <mxGraphModel dx="1434" dy="782" grid="1" gridSize="10" guides="1" tooltips="1" connect="1" arrows="1" fold="1" page="1" pageScale="1" pageWidth="1100" pageHeight="850" background="#ffffff" math="0" shadow="0">
      <root>
        <mxCell id="0" />
        <mxCell id="1" parent="0" />
        <mxCell id="73" value="TSP" style="shape=umlFrame;whiteSpace=wrap;html=1;width=120;height=30;boundedLbl=1;verticalAlign=middle;align=left;spacingLeft=5;fontSize=18;fontStyle=1;movable=1;resizable=1;rotatable=1;deletable=1;editable=1;connectable=1;" parent="1" vertex="1">
          <mxGeometry x="380" y="540" width="690" height="390" as="geometry" />
        </mxCell>
        <mxCell id="74" value="Membership 2.0 System Architecture" style="text;html=1;align=center;verticalAlign=middle;resizable=0;points=[];autosize=1;strokeColor=none;fillColor=none;fontStyle=2;fontSize=15;" parent="1" vertex="1">
          <mxGeometry x="35" y="25" width="270" height="30" as="geometry" />
        </mxCell>
        <mxCell id="88" value="MGU" style="shape=umlFrame;whiteSpace=wrap;html=1;width=120;height=30;boundedLbl=1;verticalAlign=middle;align=left;spacingLeft=5;fontSize=18;fontStyle=1;fillColor=#FFFFFF;" parent="1" vertex="1">
          <mxGeometry x="80" y="120" width="600" height="380" as="geometry" />
        </mxCell>
        <mxCell id="89" value="IDC" style="shape=umlFrame;whiteSpace=wrap;html=1;width=120;height=30;boundedLbl=1;verticalAlign=middle;align=left;spacingLeft=5;fontSize=18;fontStyle=1" parent="1" vertex="1">
          <mxGeometry x="720" y="120" width="600" height="380" as="geometry" />
        </mxCell>
        <mxCell id="161" style="edgeStyle=none;html=1;exitX=0.75;exitY=1;exitDx=0;exitDy=0;entryX=0.75;entryY=0;entryDx=0;entryDy=0;fontSize=18;startArrow=none;startFill=0;strokeColor=#3333FF;strokeWidth=1;" parent="1" source="90" target="98" edge="1">
          <mxGeometry relative="1" as="geometry">
            <Array as="points" />
          </mxGeometry>
        </mxCell>
        <mxCell id="90" value="«oap»&lt;br&gt;&lt;b&gt;3rd-party Apps&lt;/b&gt;" style="html=1;dropTarget=0;fontSize=15;" parent="1" vertex="1">
          <mxGeometry x="500" y="180" width="150" height="70" as="geometry" />
        </mxCell>
        <mxCell id="91" value="" style="shape=module;jettyWidth=8;jettyHeight=4;fontSize=15;" parent="90" vertex="1">
          <mxGeometry x="1" width="20" height="20" relative="1" as="geometry">
            <mxPoint x="-27" y="7" as="offset" />
          </mxGeometry>
        </mxCell>
        <mxCell id="94" value="«native»&lt;br&gt;&lt;b&gt;DKRClient&lt;/b&gt;" style="html=1;dropTarget=0;fontSize=15;" parent="1" vertex="1">
          <mxGeometry x="310" y="287" width="150" height="70" as="geometry" />
        </mxCell>
        <mxCell id="95" value="" style="shape=module;jettyWidth=8;jettyHeight=4;fontSize=15;" parent="94" vertex="1">
          <mxGeometry x="1" width="20" height="20" relative="1" as="geometry">
            <mxPoint x="-27" y="7" as="offset" />
          </mxGeometry>
        </mxCell>
        <mxCell id="174" style="edgeStyle=none;html=1;fontSize=18;startArrow=none;startFill=0;strokeColor=#00CC00;strokeWidth=3;endArrow=none;endFill=0;" parent="1" edge="1">
          <mxGeometry relative="1" as="geometry">
            <mxPoint x="1231.71" y="810" as="targetPoint" />
            <mxPoint x="1331.71" y="810" as="sourcePoint" />
          </mxGeometry>
        </mxCell>
        <mxCell id="176" value="AIDL" style="edgeLabel;html=1;align=center;verticalAlign=middle;resizable=0;points=[];fontSize=18;" parent="174" vertex="1" connectable="0">
          <mxGeometry x="-0.5494" y="1" relative="1" as="geometry">
            <mxPoint x="-107" y="-1" as="offset" />
          </mxGeometry>
        </mxCell>
        <mxCell id="96" value="«native»&lt;br&gt;&lt;b&gt;PersoFW&lt;/b&gt;" style="html=1;dropTarget=0;fontSize=15;" parent="1" vertex="1">
          <mxGeometry x="120" y="287" width="150" height="70" as="geometry" />
        </mxCell>
        <mxCell id="97" value="" style="shape=module;jettyWidth=8;jettyHeight=4;fontSize=15;" parent="96" vertex="1">
          <mxGeometry x="1" width="20" height="20" relative="1" as="geometry">
            <mxPoint x="-27" y="7" as="offset" />
          </mxGeometry>
        </mxCell>
        <mxCell id="205" style="edgeStyle=none;html=1;exitX=0;exitY=0.5;exitDx=0;exitDy=0;entryX=1;entryY=0.5;entryDx=0;entryDy=0;fontSize=18;startArrow=classic;startFill=1;endArrow=none;endFill=0;strokeColor=#3333FF;strokeWidth=1;" parent="1" source="98" target="94" edge="1">
          <mxGeometry relative="1" as="geometry" />
        </mxCell>
        <mxCell id="206" style="edgeStyle=none;html=1;exitX=0.25;exitY=1;exitDx=0;exitDy=0;entryX=0.75;entryY=1;entryDx=0;entryDy=0;fontSize=18;startArrow=none;startFill=0;endArrow=classic;endFill=1;strokeColor=#3333FF;strokeWidth=1;" parent="1" source="98" target="96" edge="1">
          <mxGeometry relative="1" as="geometry">
            <Array as="points">
              <mxPoint x="538" y="390" />
              <mxPoint x="233" y="390" />
            </Array>
          </mxGeometry>
        </mxCell>
        <mxCell id="98" value="«oap»&lt;br&gt;&lt;b&gt;Membership&lt;br&gt;App&lt;br&gt;&lt;/b&gt;" style="html=1;dropTarget=0;fontSize=15;fillColor=#dae8fc;strokeColor=#6c8ebf;" parent="1" vertex="1">
          <mxGeometry x="500" y="287" width="150" height="70" as="geometry" />
        </mxCell>
        <mxCell id="99" value="" style="shape=module;jettyWidth=8;jettyHeight=4;fontSize=15;" parent="98" vertex="1">
          <mxGeometry x="1" width="20" height="20" relative="1" as="geometry">
            <mxPoint x="-27" y="7" as="offset" />
          </mxGeometry>
        </mxCell>
        <mxCell id="114" value="«telematics»&lt;br&gt;&lt;b&gt;DUMM&lt;/b&gt;" style="html=1;dropTarget=0;fontSize=15;" parent="1" vertex="1">
          <mxGeometry x="120" y="420" width="530" height="50" as="geometry" />
        </mxCell>
        <mxCell id="115" value="" style="shape=module;jettyWidth=8;jettyHeight=4;fontSize=15;" parent="114" vertex="1">
          <mxGeometry x="1" width="20" height="20" relative="1" as="geometry">
            <mxPoint x="-27" y="7" as="offset" />
          </mxGeometry>
        </mxCell>
        <mxCell id="116" value="«app service»&lt;br&gt;&lt;b&gt;DKRClient&lt;/b&gt;" style="html=1;dropTarget=0;fontSize=15;" parent="1" vertex="1">
          <mxGeometry x="1130" y="290" width="150" height="70" as="geometry" />
        </mxCell>
        <mxCell id="117" value="" style="shape=module;jettyWidth=8;jettyHeight=4;fontSize=15;" parent="116" vertex="1">
          <mxGeometry x="1" width="20" height="20" relative="1" as="geometry">
            <mxPoint x="-27" y="7" as="offset" />
          </mxGeometry>
        </mxCell>
        <mxCell id="118" value="«app service»&lt;br&gt;&lt;b&gt;PersoApp&lt;/b&gt;" style="html=1;dropTarget=0;fontSize=15;" parent="1" vertex="1">
          <mxGeometry x="945" y="290" width="150" height="70" as="geometry" />
        </mxCell>
        <mxCell id="119" value="" style="shape=module;jettyWidth=8;jettyHeight=4;fontSize=15;" parent="118" vertex="1">
          <mxGeometry x="1" width="20" height="20" relative="1" as="geometry">
            <mxPoint x="-27" y="7" as="offset" />
          </mxGeometry>
        </mxCell>
        <mxCell id="208" style="edgeStyle=none;html=1;exitX=1;exitY=0.5;exitDx=0;exitDy=0;fontSize=18;startArrow=none;startFill=0;endArrow=classic;endFill=1;strokeColor=#00CC00;strokeWidth=1;" parent="1" source="120" target="118" edge="1">
          <mxGeometry relative="1" as="geometry" />
        </mxCell>
        <mxCell id="209" style="edgeStyle=none;html=1;exitX=0.75;exitY=1;exitDx=0;exitDy=0;entryX=0.5;entryY=1;entryDx=0;entryDy=0;fontSize=18;startArrow=classic;startFill=1;endArrow=none;endFill=0;strokeColor=#00CC00;strokeWidth=1;" parent="1" source="120" target="116" edge="1">
          <mxGeometry relative="1" as="geometry">
            <Array as="points">
              <mxPoint x="873" y="390" />
              <mxPoint x="1205" y="390" />
            </Array>
          </mxGeometry>
        </mxCell>
        <mxCell id="120" value="«app service»&lt;br&gt;&lt;b&gt;Membership&lt;br&gt;App&lt;/b&gt;" style="html=1;dropTarget=0;fontSize=15;fillColor=#dae8fc;strokeColor=#6c8ebf;" parent="1" vertex="1">
          <mxGeometry x="760" y="290" width="150" height="70" as="geometry" />
        </mxCell>
        <mxCell id="121" value="" style="shape=module;jettyWidth=8;jettyHeight=4;fontSize=15;" parent="120" vertex="1">
          <mxGeometry x="1" width="20" height="20" relative="1" as="geometry">
            <mxPoint x="-27" y="7" as="offset" />
          </mxGeometry>
        </mxCell>
        <mxCell id="126" value="OMC" style="shape=umlFrame;whiteSpace=wrap;html=1;width=120;height=30;boundedLbl=1;verticalAlign=middle;align=left;spacingLeft=5;fontSize=18;fontStyle=1" parent="1" vertex="1">
          <mxGeometry x="410" y="990" width="290" height="245" as="geometry" />
        </mxCell>
        <mxCell id="143" value="«backend»&lt;br&gt;&lt;b&gt;MyBMW OMC&lt;/b&gt;" style="html=1;dropTarget=0;fontSize=15;" parent="1" vertex="1">
          <mxGeometry x="520" y="1085" width="150" height="70" as="geometry" />
        </mxCell>
        <mxCell id="144" value="" style="shape=module;jettyWidth=8;jettyHeight=4;fontSize=15;" parent="143" vertex="1">
          <mxGeometry x="1" width="20" height="20" relative="1" as="geometry">
            <mxPoint x="-27" y="7" as="offset" />
          </mxGeometry>
        </mxCell>
        <mxCell id="145" value="Mobile" style="shape=umlFrame;whiteSpace=wrap;html=1;width=120;height=30;boundedLbl=1;verticalAlign=middle;align=left;spacingLeft=5;fontSize=18;fontStyle=1" parent="1" vertex="1">
          <mxGeometry x="120" y="990" width="250" height="245" as="geometry" />
        </mxCell>
        <mxCell id="146" value="«telematics»&lt;br&gt;&lt;b&gt;OKHTTP&lt;/b&gt;" style="html=1;dropTarget=0;fontSize=15;" parent="1" vertex="1">
          <mxGeometry x="760" y="420" width="530" height="50" as="geometry" />
        </mxCell>
        <mxCell id="147" value="" style="shape=module;jettyWidth=8;jettyHeight=4;fontSize=15;" parent="146" vertex="1">
          <mxGeometry x="1" width="20" height="20" relative="1" as="geometry">
            <mxPoint x="-27" y="7" as="offset" />
          </mxGeometry>
        </mxCell>
        <mxCell id="148" value="«application»&lt;br&gt;&lt;b&gt;MyBMW&lt;/b&gt;" style="html=1;dropTarget=0;fontSize=15;" parent="1" vertex="1">
          <mxGeometry x="170" y="1085" width="150" height="70" as="geometry" />
        </mxCell>
        <mxCell id="149" value="" style="shape=module;jettyWidth=8;jettyHeight=4;fontSize=15;" parent="148" vertex="1">
          <mxGeometry x="1" width="20" height="20" relative="1" as="geometry">
            <mxPoint x="-27" y="7" as="offset" />
          </mxGeometry>
        </mxCell>
        <mxCell id="150" value="Membership 2.0 System Architecture" style="text;html=1;align=center;verticalAlign=middle;resizable=0;points=[];autosize=1;strokeColor=none;fillColor=none;fontStyle=2;fontSize=15;" parent="1" vertex="1">
          <mxGeometry x="1090" y="1293" width="270" height="30" as="geometry" />
        </mxCell>
        <mxCell id="152" value="" style="dashed=0;outlineConnect=0;html=1;align=center;labelPosition=center;verticalLabelPosition=bottom;verticalAlign=top;shape=mxgraph.weblogos.android;fillColor=#A4CA39;strokeColor=none;fontSize=18;" parent="1" vertex="1">
          <mxGeometry x="1231" y="126" width="36" height="38" as="geometry" />
        </mxCell>
        <mxCell id="177" style="edgeStyle=none;html=1;fontSize=18;startArrow=none;startFill=0;strokeColor=#3333FF;strokeWidth=3;endArrow=none;endFill=0;" parent="1" edge="1">
          <mxGeometry relative="1" as="geometry">
            <mxPoint x="1231.71" y="836" as="targetPoint" />
            <mxPoint x="1331.71" y="836" as="sourcePoint" />
          </mxGeometry>
        </mxCell>
        <mxCell id="178" value="SomeIp" style="edgeLabel;html=1;align=center;verticalAlign=middle;resizable=0;points=[];fontSize=18;" parent="177" vertex="1" connectable="0">
          <mxGeometry x="-0.5494" y="1" relative="1" as="geometry">
            <mxPoint x="-117" y="-1" as="offset" />
          </mxGeometry>
        </mxCell>
        <mxCell id="179" style="edgeStyle=none;html=1;fontSize=18;startArrow=none;startFill=0;strokeColor=#FF0000;strokeWidth=3;endArrow=none;endFill=0;" parent="1" edge="1">
          <mxGeometry relative="1" as="geometry">
            <mxPoint x="1231.71" y="862" as="targetPoint" />
            <mxPoint x="1331.71" y="862" as="sourcePoint" />
          </mxGeometry>
        </mxCell>
        <mxCell id="180" value="https" style="edgeLabel;html=1;align=center;verticalAlign=middle;resizable=0;points=[];fontSize=18;" parent="179" vertex="1" connectable="0">
          <mxGeometry x="-0.5494" y="1" relative="1" as="geometry">
            <mxPoint x="-107" y="-1" as="offset" />
          </mxGeometry>
        </mxCell>
        <mxCell id="186" value="" style="verticalLabelPosition=bottom;html=1;verticalAlign=top;align=center;strokeColor=none;fillColor=#00BEF2;shape=mxgraph.azure.azure_instance;fontSize=18;aspect=fixed;" parent="1" vertex="1">
          <mxGeometry x="660" y="996.85" width="32" height="32" as="geometry" />
        </mxCell>
        <mxCell id="187" value="" style="shape=image;verticalLabelPosition=bottom;labelBackgroundColor=#ffffff;verticalAlign=top;aspect=fixed;imageAspect=0;image=data:image/jpeg,/9j/2wCEAAgGBgcGBQgHBwcJCQgKDBQNDAsLDBkSEw8UHRofHh0aHBwgJC4nICIsIxwcKDcpLDAxNDQ0Hyc5PTgyPC4zNDIBCQkJDAsMGA0NGDIhHCEyMjIyMjIyMjIyMjIyMjIyMjIyMjIyMjIyMjIyMjIyMjIyMjIyMjIyMjIyMjIyMjIyMv/AABEIAMgAyAMBIgACEQEDEQH/xAGiAAABBQEBAQEBAQAAAAAAAAAAAQIDBAUGBwgJCgsQAAIBAwMCBAMFBQQEAAABfQECAwAEEQUSITFBBhNRYQcicRQygZGhCCNCscEVUtHwJDNicoIJChYXGBkaJSYnKCkqNDU2Nzg5OkNERUZHSElKU1RVVldYWVpjZGVmZ2hpanN0dXZ3eHl6g4SFhoeIiYqSk5SVlpeYmZqio6Slpqeoqaqys7S1tre4ubrCw8TFxsfIycrS09TV1tfY2drh4uPk5ebn6Onq8fLz9PX29/j5+gEAAwEBAQEBAQEBAQAAAAAAAAECAwQFBgcICQoLEQACAQIEBAMEBwUEBAABAncAAQIDEQQFITEGEkFRB2FxEyIygQgUQpGhscEJIzNS8BVictEKFiQ04SXxFxgZGiYnKCkqNTY3ODk6Q0RFRkdISUpTVFVWV1hZWmNkZWZnaGlqc3R1dnd4eXqCg4SFhoeIiYqSk5SVlpeYmZqio6Slpqeoqaqys7S1tre4ubrCw8TFxsfIycrS09TV1tfY2dri4+Tl5ufo6ery8/T19vf4+fr/2gAMAwEAAhEDEQA/APf6KKKACiiigAooooAKKKKACiiigAooooAKKKKACiiigAooooAKKKKACiiigAooooAKKKKACiiigAooooAKKKKACiquo6lZ6Rp81/qFzHbWsC7pJZDgKP8APbvXhniz9ooI723hWwDgHH2y8Bwf92Mc/iT+FAHvtFfHlx8ZvH1xKZD4gkjyeFjgiUD/AMdrZ0D48eNbG4UXrQ6vAOWjliVHx7MgGPqQaAPqqiuH8EfFPw943K2trJJa6mE3NZzjDcddrdGA/P2FdxQAUUUUAFFFFABRUVxcRWsLSzyLHGvVmOAKkVgyhgcg9DSur2AWiikJCgknAHU0wForKsNZGo6hNDDETBGoYTbuvOOnvzj6Vq1EKkaivHYSaewUUUVYwooooAKKKKACiiigAooooA+bf2g/GM93rsfhW2lZbSzVZbpR/wAtJWGVB9QFIP1Y+grxKuw+Jjy3/wAUvEARGkkN60aqoJJ2/KAB+Fc7NpVzbxO0qNHIg3PFIpVwOmcEcj6UAUa1/D+pwaTeSXM0Ql/dlVQjOSayVRnYKilmJwABkk10SeCNdEAuLjT544Nu4sqhmH/Ac5oAz5dYkTVk1LT91lcxvvSSFtpVvUY6V9dfDHxivjTwZbX8jg38P7i8AGP3oA5x6MMH8SO1fHN3ataShCyurKGR16Mp7ivXP2ddZktPGl5pJc+RfWpcJ/00Qgg/98l6APpyiiigAoorI1fXrXTkESywveSHbHCZADn1PoBUzmoRcpbCbtqP1+W3TSZ0uJVQuP3eeSXHIwB15Arn7bxJPYWKQG2XK8IZZNuF7DAyeOn0xXK6p4qiF0wWSae7yVacQuQD3CcYAqLSTday8ksNndSKhw8rhQue/wAxOCfbOfavBrYqvUq3oxa6HNKcnL3UdkviXU5eU+xgf9c2P9RUN7q2qXlv5EiwGMn5xESpYenOeK5TUden0d/KFjHcyf8APOKcl/xAQj9as6L4nh1WcWsttLZ3ZUuIpCGDAdcMPTI4IBpT+t8j527DfPbU7bw5e2ccf2ViYryRizK4xu9MHocDHSujrjreO3uV8m4QMvUHuD6g1p6de3FneLp965kSTP2a4JyW/wBlvf3712YPFWiqcv69TSErKzN6iiivVNQooooAKKKKACiiigAooooA+Y4LvTNF+KnjzxDqlmbxNMeV4bcHG+R5lReew+br6GtzxTf6P47+FeqakNKh07WNLjhuV8p94McjY4bAyCAwII4K/Q1z2ox2Enxp8WaJqjyxWWrCSBpEjLmNzslR8Dk4ZR+ddP4M8CTaTol1ZapOl3BfhEnhbO3y0ZmQDofvMT2+lcONzChg481V69uptSoTqv3TkfgX4Zt9S8dNNqUMcsVtZNcQqSGBbcqg8egY13elfGfQ9T8UTabLpFtBpImEMdwz/vHBbaH24xjJGRnIBzzg1taP4csPDer/AG3R7O2tC0RicxqdxBIODk4I4Hb8a88074LmDxZBcXmoRtoyTeayop81gDkJjoPTOfwrjw2fYOs7N8r8zSpg6kdtTmPjP4bi8NfECeK1AS0u4luoox0TcSGH/fSk/jS/A/zP+Ft6PsPG2fd9PJf+uKT40a//AG98RrtkjkSG0jS2i8xSpIGSTg9iWOPbFQfBu+Sw+K2iPIcJK7wn6vGyr+pFeymmro5Wrbn2JRRRTAwtSuPO1tbCZiLZLXzmjBx5zM20A+qgA5HfcM15X8QNQ0+3jaBYYSQcLGqAIg9AOlel+NbeQaUt9aOsWoQHZDIwyCHIDI3scA/VQe1eHX/hzV9T1hjqLxLCG+bypCxb2HA/OuPE4qnS92T1M5zS0Y7wlafa7Kaa5jDRu5EW4fdUenpzk/rXpmj6gjaBbadJIITYQJFLGvDPgYDj/ZbBOfXI6g1iaZo0kMEcUNuUiQYHGBWnLZ2bRqt2yKy52sJNrLnrgg5rxcNjXCrKTXus54VGpN9Dn9c1OKEOsKqi56Adfr61zvhuea98Y2flknyy0jY7LtK/zYV0V34a0q5lJfWLwrn7oCn9dtbGjQeH9DUi1icO33pNuWb6k8+v512VsfRcWk9zV1Y9zoYyysCK0ruFr/SXRSRNH88bDqrDkVkJ4h0pesc5/wCAj/GrkPirSVGMTID6pmuCFSmk05ERlHqzpNJvDf6VbXLfedBu/wB4cH9Qau1g+FJRLpk2zPlC4fyyRjKk5/qa3q+jw83OlGT7HRB3imFFFFbFBRRRQAUUUUAFFFBOOtAHz5fyWNh8f/EX2uPl0heNtucZiTP6kflXo0ciSoskbBkYZBHQ15bpd1B43/aA1mW1ImtXheJGHIKxqibh7Ern8a6x1ufD19LbzQvJDngoSGH496+Wz3KamIn9YpXb7Ho4PExjHklodM80UC+ZM4UZwMnqar3E7yoGLm2txy0jcMR6AHp9Tz7dxnW1zPeyj7Dp4WZuPNlOSB9etdfpfhaNUSfUT9on6/N0H0HQV5WDyPE1tJLlXd/5HRVxVOGzufLnxUuhd+OJ2WNlRYo1QkY3jHX/AD6ViCx1Pw5eWWrRhT5Msc8MyHK7gQy+/avaPj74GCWFv4lsI/lgIhuQOoUn5W/A8fjXiR1+7bRW0uQI8RwFYj5lAOcfpX3NCiqNKNOOyVjyJy55OT6n27o+p2+taLZapakmC7gSZM9QGAOD781drxD9n7xwl7pT+E72T/SbQNLaE/xxE5K/VSc/Q+1e2s6opZmAUDJJ7VqSY/ii2ubnRytpbtcSpIr+WpALAHnGSBXkGoeINegvnt4NGksJc5JkhJf65IxXpfiDxFb3MS2On3Tmd5VVpIsgAd8N/hXPalHaabMsfledMVDO0hzya+ezCrSdRyjq11voctWSbujjd/iO9P7+aU57NL/QVag0nVDgsP0P+Fbi3ksh2oAg9FGKvQROwBZia8vm5zDcxI9J1AdR/L/Gphpd8P8Alnn8R/jXQpHipAMU/Yp7lezRzLWF2o5gf8BmtTS49DgdX1T7Uz/3DHtUfkcmrd3c/ZoDJjJzhR6msnVpriz0x57q5GXIVYcAAt1xnt0JJ9AetXRpNVFGmuZ9mKyi7nqdn5H2OI2yhYCgKBRgYI44qevMfDXxJYtbabfWAZdmyK4s38xH2jp/vYBOPY16Bp+rWWpputp1cjqh4ZfqK+t5lCXsp6S7f5HZCpGSTReooorQ0CiiigAooooAK8U+N/xMTS7KXwro9w41GYAXksZx5MZGdmf7zAj6A+9egfEXxhH4J8H3OqYD3TEQ2qHo0rA4z7DBJ9hXyf4eS48S+NYp9Qd7qWWY3Fwz8lz15+pxQB9F/BbwFD4Y8Mx6tdQj+1tRjDux6xxHlUHp2J9/pXdarocGosHKrv7571Jol4t1pkGI2RlQKQVwOBVyaZ4cFYXkBOPkxkfn2oAqado9vYKCqAv61o01CWUFl2n0zmq95dSW0ZaO2kmI7LigBuq6ZbazpN1pt5GJLe5iaKRT6EV8Na1pc2ia3faXcf660neFvcqcZ/GvsK48YXFvLh7B0UHncK8G+OOgJH4gg8U2K5sdWUCQj+CdRgg+mQAfzoA830XWb7w/rFtqumzmG7t33I4/IgjuCMgjuDX0xo/iqTx5pUWotOI7Zjte0jb7jjqG9fX6EdK+WnjePG9SuRkZHUV1XgHxa/hbXkeZ3/s+f5LhBz9Gx6j+Wa5MbQlVpWi9fzIqR5kfRaW8S6pZQxxqoyWOB+Aqhr8nmazP6BsVfsJkuNbgljcPF5IZWByCCcgj8Kx9RfzNRnb1c18rV0hbzOKXwj7JMuK3IlAUVj2A+YVtR/dFOitBw2H0h6UtI3Styyhd/PeWcZ5Bctj3HSsbxFBdaika26RyNCWIjdtpWTjZIpwRlSOh4IJ5FbF5uIR4ziWJt6f4VX/tHTbt/NIeGY8tjlc/zpUa06FT2kN0TezuZ7W2r37xwpYRWVuLuG88yWcM0TL/AKxEVc5DHPJI+81dBLEglEsUjQXA+7Khwfx9abHOvkb1B8v+Fj/F+FZs900soRMkk8AVrjMdPENTqb+QOSsdv4f1q5ubh9Ov1BuY03iReki+v15roc1xGivnxXbrnLJa7Xx6/wCcV3Fe3l9WVSj7zvZ2Oqk246hRRRXcaBRRWX4j1y28N+Hb7WLs/ubSIyEf3j0VR7kkD8aAPnD45eJm13xy+krIw0/R02MoPDSnBY/XlV/A+tdT8AvAgFpL4p1CFStwDFZowz8oPzN+Yx+FePWMF34v8S21mZN9/q97vnk92bJP6k/hX2hpem22j6Va6dZxiO2tolijUdgBigC0AFAAAAHYUtFGRnGeRQAUUUUAQXFnb3SFZ4UcH1FefeNfAD6xoGoaXbkGCdfMtw3/ACynXlT9Dyp9mr0iigD4PjS4WOa3njZo4iVZG6xsOuPT3qk6FGwRjjP4V2XxRtW0f4meIbSL93HJc+dtA4/eKH/9mrl7grJp1pJ/GpaJj6gYI/nQB678KPFduukT2d5KRcWgCxLnLSITgBR7HjHpivR7XS7nU2L21kozzmeYJ/6CGr5r8H36ad4r06aZwluZ0SZj0CFhkn6dfwr6Zm1qHTSYoL62Y+iTKT+hrhnl9CUnKS3M3Si3dnPXHiSz0q8mtJ7G6+0QO0cgj2sm4HBwxIyPwqxa+Mra4YKlhdj67f8AGsDUNE1nVdSuL23ih8qeRpFaR9pOT1x1FS2PhnX7aQOUtMf75rD6vgou1/xJ5aaOpl8RQQJvls7wD2jB/rXM+IPiIttGsWlW+6c8s1yuAg+gPJ/H861riw1iS32fZYGOP4ZMfzrkb63vdA1GHU7/AESCePmJUuCskZY8jIHsD6VcMNhHJcrv8xqMDLh8VeKb+8HkTS3EmciGG3Ugj0wFyfzrvrCzS7ktLjGFukEuPTjJFYX/AAmut3NsY7KW3sLc8GCzt0jUe3TP60zTL5rKKCQzSAxsQy7sgZOc4pY3AqVO9NWa/EVSmmvdO3vSxxFEvA4AFR2lrILhYYE82+f7qjonuakW/tJoxI0xjdl52g5H0OK3/BUYW4vWWMsnylJ3TDNnqM14eHoKtWUb7nPGPNKxtaFocelQeY+JLyQZll6/gPatiiivq6dONOKhFaI7UklZBRRRWgwr59/aC8brK8Xg+yfJRlmvmHrjKJ+u4/8AAfevoKvlnx18O/Eut/EnxBPaWu6A3O9ZpnCKwZVYBc9cA4444rOrWp0o81SSS8xxi5OyQnwR0pJvizGxUFbK0ecZ7Eqq/wDs9fU9fOnwTtZtM+J17aX8Zgvl05o5Yn67lZMEdiCMHIr6Lq4yUldbCaa0YVnWEjS6lqZJJVJURR6YQH+taNZekf8AH1qnr9rP/oK0wNSiiigAooooA+T/AI+wLF8UJ3HWW1hc/XBX/wBlrzeRHS0hLH5ZCzKPpxn9P0r0z47SQ3vxQuFjmQC3tYY5GOcK2Cccd8EV5xMY7h1T7QiJEgRNwbB7noPUk/jQBTr6N0HVp7rw/p84YK0lvGzbRjJ2jP6189XFnPaiNpF+SVd0bqcqw9jX0HpWlXGkaBpltcLh1tY93sdoyPwNeNnTapRt3OfEX5VY2rWdmfLMSa2YnBUVzUblGBrSgu8KMmvBpVLbnNCRrFwK5jxsq3PhyXHJikSQfng/oTWm1y0r7E5JqtcwDULS4tI4zKZEaNmzhVyMda6aVfkqRkujNFOzPOreG2tZyWvlfBYbYI2cNgfLycDBPHXI649ej0q00vULhoJrV3R0UgyEq6sBhuR2z0rA/sLxfDK9vFZkDoXjdFU888/eIIHtW74d0DWdJ1B77VGM1xOpRAJCwLE5yxPevfx2Lp+xfLLXpY3nJKO56T8PdDtdO028aNpJWe4IImIbZtHAHHvXagAdBWP4c0uXS9OKzvunlcySDsCe1bNb4VSVKPPuaQvyq4UUUV0FBRmkPSuOfUb28Z3NxIqMSVSNtu0dhkcmvPzDMaeCipTTd9rG1GhKq7I6DVtWi06JUDK1zLxFHn8yfYVzo3SMZJCWdjkk96qx2MaTtMFJlf70jMWY/ieatgYGK+OzDMZ46om1aK2X6nqUaCpLuzkfGnhq41K3TUtGkNrr1n89rcxtsYjuhPocnrxn2Jq38NPi7b+Imi0HX82niCPMZLrtS4Yen91/Vfy9B0TruFeF/F3wi2n348S2C7YpnAuQpwUl7OPrj8/rXp5FmDhP6rUej+H/AC/yOfGUbr2i+Z9UVVtrQW91dSg8TuHx6HAH9K8J+E3xmuZry18OeJZWmaVhFa3zctuPAST1z0DdfX1r6Ar6480KKKKACub1u/P9pi0WQhViDkA9ySOfyro2ztOOuOK8wM0g8X3kcrFi0Yxn6mvIz2Uo4KTj5HVg4p1Vc8d+NIgbxLbPBarGTERLMq4Mj57nuQMV5lX094j8LW+to3mwpKrHJVvWue034XaXBeLM9mmFOcOxYfkTXmYDPsPSw0Y1L3R01sFKU+aL0MX4YeAotS09dU1638y2H/HlA5I5zkuQPyAPv7V6RO7WUn2W7QvbtkxHuB2rat7WOCBIkGFQYAHaqWsWhu0TeMqg2qfSvN+vVMVXlOronsjmx2GUaKcFqjHe13gvbsHT26ioCHTggipGsrq2O+MkgdCp5oW6uNkjuAyxjLblFaOkzw+Ungid4kjQ4knbYD6DvV+WZIZPsVuAscXBI/iPc0tnb3Ud3plxcLGIp0Z4Qvpjv+YrPVibqUnruP8AOrcXTVmtStjYgOVFF5Abi1dB97qv1FJbfcFWK2SvEvdHVaFff2ho1tOzZcrtf/eHB/lWlXIeFLkwane6e33W/fRj+f8AT8q6+vpcHV9rRUnvsdVOV4hRRRXUWB6Vw6rsuZ0HRZpFH0DnFdux2qT6VxHmAzO5/iYsfqTmvluJ5xUaUXvdnoYBO8iaimh1PenZr5pNPY9AKz9X0u11fTp7G8iElvOu11P8x7g85rQpr/dNKTaXMt1qg0ejPE/CnwY1qfxaJhfWcdpp14jOxc+ayghlIXHcd846+lfUFeYarqM+gTRazZxCSaL5JYt2PPi7rn1HUHsfYmp7H46eBLuFWm1GezkI5jntnyp9MqCP1r7zKsesbh1N/EtGePiKPsp26HpFFec3Pxy8A24JXVZZz/ditZP6gCuN8R/tHWiQvF4b0mWSY8Ce+wqL77FOT+Yr0znPYvEfiPTPC2izarqs/lW0XHAyzseiqO5P+eK8Y8HeILjxTrV5rMiGNJ528mP+5GOAPr1rxjxH4u13xZeC51rUZrkqSUjJxHHn+6o4Fex/Cy1EOh2hI5KFvzJP9a8TiCfLg2u524FXqXPSUj3DJpwjANPX7opa+HhSiknY9RthSEAjBGRQWAHJqAXSSZ8rLgcbu35963hFydomc5xhG8thksCr06Gs2/iQWc5Kg5AHT3FajMW61n6rhbB/cgfrXsQjKNP3tz5rEOEptwVkburwi2GgADCxIY//ABwf4VyEh8u9mHo5/nXb+KBjS9PnH8E6ZPsQRXDX2Vv5T6tmunMly1fu/IyraM17SQFBVysSznxgGteOQMBzWNOV0KLuEM32LXLC7PCl/Kc+zdK9ArzfVF3WDkdVIYfnXe6Zc/bNMtrg9ZIlY/XHNezlVTWVP5m9F6tFuiiivYNxDzxXLar4Zv3laXS72NATnyZ14H0Yc/oa6qiubE4Ojio8taNzSnVnTd4s85l0zxRaqWexWdR1MMin9Dg1Q/t9rWURX1tNbv6SIVP616rUU9tBdRGK4hjmjbqkihgfwNeNW4bw0vgbR1xx818SucDBqtvMoKSj8ake8j25LjHtWtqHgPSboFrQSWMv96E/L/3yePyxXOz+ANfVysGo2ckfZpCyH8gD/OvHrcPYqLtF3R1QxlKW+hgeJNYhNvIrOFRe5ryOz+FHjfW0a9svD84t5WLIZ5EhJBPBw7A/pX094b8G2ujILi7CXWoHkykZVPZAen1611A4r6TKcveDptPdnDi66qu0dkfJCfAnx85+bTIE/wB67j/oTVkfADxyRnybAexuh/hX1dRXrHIfIt78DvHlnGXXS4rkDr5FyhP5Egmu+8HtNpNhbWl3DJb3MMapJFIu1lYDkEV75XHeKPA66zdm/sLhba8YASBhlJMcAnHINeXm2DliqHLHdHVhK0ac/e6mZHqkJUEtiq8+uL5qwW8bzTudqIoyWNRJ8PfERYB76xVO5V3J/LaK6/w74RtNBHnM5ub0ghp2GMD0Udh+tfO4bIK0p2q6RO6pjKcVeOrMCbwxr9zAk8skW48m13cL9T0b+X1qMwa1bfJLpLtjj92OP0zXotFfQLJ6EVam2jxq3NWlzSZ54kGtznEWlSKfWTj+eKt2nhXU7u6ifVHjW3VtxiU5J9uP8a7iirhldJO8m2ZKiurMzXNObU9HltYyFkOGQnpkHNee3UKeeYb5WtrteGLDg+9eq1XurG1vU2XNvHKo6b1ziqxuAWI95Oz/AAHUpc+p5vBpcvDRSQyr6h6t+RJCfmAA781003g7SJDlIpIT6xyH+uagHgnTiwL3F3IB/C0gx/KvN/syvHRJff8A8Ax9jJbHK3tyLlRZWuZZpGC4QZr0PSLR7HSbW2fG+OMBsevemWOiadpp3WtqiPjG88t+ZrQr0sDgnQbnN6s2p03F3YUUUV6JqFFFFABRRRQAUUUUAFFFFABRRRQAUUUUAFFFFABRRRQAUUUUAFFFFABRRRQAUUUUAFFFFABRRRQAUUUUAFFFFABRRRQAUUUUAFFFFABRRRQAUUUUAFFFFABRRRQAUUUUAFFFFABRRRQB/9k=;" parent="1" vertex="1">
          <mxGeometry x="579" y="122" width="47" height="47" as="geometry" />
        </mxCell>
        <mxCell id="189" value="" style="sketch=0;aspect=fixed;pointerEvents=1;shadow=0;dashed=0;html=1;strokeColor=none;labelPosition=center;verticalLabelPosition=bottom;verticalAlign=top;align=center;fillColor=#00188D;shape=mxgraph.azure.mobile;fontSize=18;" parent="1" vertex="1">
          <mxGeometry x="340" y="995" width="25" height="35.71" as="geometry" />
        </mxCell>
        <mxCell id="190" value="" style="sketch=0;outlineConnect=0;fontColor=#232F3E;gradientColor=none;fillColor=#3F8624;strokeColor=none;dashed=0;verticalLabelPosition=bottom;verticalAlign=top;align=center;html=1;fontSize=12;fontStyle=0;aspect=fixed;pointerEvents=1;shape=mxgraph.aws4.car;" parent="1" vertex="1">
          <mxGeometry x="631" y="123" width="44" height="44" as="geometry" />
        </mxCell>
        <mxCell id="191" value="" style="sketch=0;outlineConnect=0;fontColor=#232F3E;gradientColor=none;fillColor=#3F8624;strokeColor=none;dashed=0;verticalLabelPosition=bottom;verticalAlign=top;align=center;html=1;fontSize=12;fontStyle=0;aspect=fixed;pointerEvents=1;shape=mxgraph.aws4.car;" parent="1" vertex="1">
          <mxGeometry x="1272" y="124" width="44" height="44" as="geometry" />
        </mxCell>
        <mxCell id="194" value="CIS" style="shape=umlFrame;whiteSpace=wrap;html=1;width=120;height=30;boundedLbl=1;verticalAlign=middle;align=left;spacingLeft=5;fontSize=18;fontStyle=1" parent="1" vertex="1">
          <mxGeometry x="730" y="990" width="490" height="245" as="geometry" />
        </mxCell>
        <mxCell id="197" value="«backend»&lt;br&gt;&lt;b&gt;CMS&lt;/b&gt;" style="html=1;dropTarget=0;fontSize=15;fillColor=#dae8fc;strokeColor=#6c8ebf;" parent="1" vertex="1">
          <mxGeometry x="1040" y="1085" width="150" height="70" as="geometry" />
        </mxCell>
        <mxCell id="198" value="" style="shape=module;jettyWidth=8;jettyHeight=4;fontSize=15;" parent="197" vertex="1">
          <mxGeometry x="1" width="20" height="20" relative="1" as="geometry">
            <mxPoint x="-27" y="7" as="offset" />
          </mxGeometry>
        </mxCell>
        <mxCell id="202" style="edgeStyle=none;html=1;exitX=1;exitY=0.5;exitDx=0;exitDy=0;entryX=0;entryY=0.5;entryDx=0;entryDy=0;fontSize=18;startArrow=none;startFill=0;strokeColor=#FF0000;strokeWidth=1;" parent="1" source="252" target="252" edge="1">
          <mxGeometry relative="1" as="geometry">
            <mxPoint x="666" y="1095" as="sourcePoint" />
            <mxPoint x="925" y="810" as="targetPoint" />
            <Array as="points">
              <mxPoint x="850" y="1120" />
            </Array>
          </mxGeometry>
        </mxCell>
        <mxCell id="204" value="" style="verticalLabelPosition=bottom;html=1;verticalAlign=top;align=center;strokeColor=none;fillColor=#00BEF2;shape=mxgraph.azure.cloud;fontSize=18;" parent="1" vertex="1">
          <mxGeometry x="1170" y="996.85" width="40" height="26" as="geometry" />
        </mxCell>
        <mxCell id="37" value="&lt;b&gt;Netscaler&lt;/b&gt;" style="html=1;dropTarget=0;fontSize=15;horizontal=1;movable=1;resizable=1;rotatable=1;deletable=1;editable=1;connectable=1;" parent="1" vertex="1">
          <mxGeometry x="410" y="583.5" width="610" height="40" as="geometry" />
        </mxCell>
        <mxCell id="38" value="" style="shape=module;jettyWidth=8;jettyHeight=4;fontSize=15;movable=1;resizable=1;rotatable=1;deletable=1;editable=1;connectable=1;" parent="37" vertex="1">
          <mxGeometry x="1" width="20" height="20" relative="1" as="geometry">
            <mxPoint x="-27" y="7" as="offset" />
          </mxGeometry>
        </mxCell>
        <mxCell id="43" value="«backend»&lt;br&gt;&lt;b&gt;Membership&lt;br&gt;Service&lt;br&gt;&lt;/b&gt;" style="html=1;dropTarget=0;fontSize=15;verticalAlign=middle;fillColor=#dae8fc;strokeColor=#6c8ebf;movable=1;resizable=1;rotatable=1;deletable=1;editable=1;connectable=1;" parent="1" vertex="1">
          <mxGeometry x="410" y="710" width="150" height="70" as="geometry" />
        </mxCell>
        <mxCell id="44" value="" style="shape=module;jettyWidth=8;jettyHeight=4;fontSize=15;movable=1;resizable=1;rotatable=1;deletable=1;editable=1;connectable=1;" parent="43" vertex="1">
          <mxGeometry x="1" width="20" height="20" relative="1" as="geometry">
            <mxPoint x="-27" y="7" as="offset" />
          </mxGeometry>
        </mxCell>
        <mxCell id="59" value="&lt;b&gt;API GW&lt;/b&gt;" style="html=1;dropTarget=0;fontSize=15;horizontal=1;movable=1;resizable=1;rotatable=1;deletable=1;editable=1;connectable=1;" parent="1" vertex="1">
          <mxGeometry x="410" y="862" width="610" height="40" as="geometry" />
        </mxCell>
        <mxCell id="60" value="" style="shape=module;jettyWidth=8;jettyHeight=4;fontSize=15;movable=1;resizable=1;rotatable=1;deletable=1;editable=1;connectable=1;" parent="59" vertex="1">
          <mxGeometry x="1" width="20" height="20" relative="1" as="geometry">
            <mxPoint x="-27" y="7" as="offset" />
          </mxGeometry>
        </mxCell>
        <mxCell id="203" value="" style="outlineConnect=0;dashed=0;verticalLabelPosition=bottom;verticalAlign=top;align=center;html=1;shape=mxgraph.aws3.cloud_2;fillColor=#F58534;gradientColor=none;fontSize=18;movable=1;resizable=1;rotatable=1;deletable=1;editable=1;connectable=1;" parent="1" vertex="1">
          <mxGeometry x="1031" y="543" width="35" height="35" as="geometry" />
        </mxCell>
        <mxCell id="227" value="&lt;b&gt;New&lt;br&gt;Component&lt;br&gt;&lt;/b&gt;" style="html=1;dropTarget=0;fontSize=15;fillColor=#f8cecc;strokeColor=#b85450;" parent="1" vertex="1">
          <mxGeometry x="1200" y="700" width="124" height="70" as="geometry" />
        </mxCell>
        <mxCell id="228" value="" style="shape=module;jettyWidth=8;jettyHeight=4;fontSize=15;" parent="227" vertex="1">
          <mxGeometry x="1" width="20" height="20" relative="1" as="geometry">
            <mxPoint x="-27" y="7" as="offset" />
          </mxGeometry>
        </mxCell>
        <mxCell id="229" value="«native»&lt;br&gt;&lt;b&gt;Speech/Vehicle&lt;/b&gt;" style="html=1;dropTarget=0;fontSize=15;" parent="1" vertex="1">
          <mxGeometry x="310" y="180" width="150" height="70" as="geometry" />
        </mxCell>
        <mxCell id="230" value="" style="shape=module;jettyWidth=8;jettyHeight=4;fontSize=15;" parent="229" vertex="1">
          <mxGeometry x="1" width="20" height="20" relative="1" as="geometry">
            <mxPoint x="-27" y="7" as="offset" />
          </mxGeometry>
        </mxCell>
        <mxCell id="231" style="edgeStyle=none;html=1;exitX=0.5;exitY=0;exitDx=0;exitDy=0;fontSize=18;startArrow=classic;startFill=1;endArrow=none;endFill=0;strokeColor=#3333FF;strokeWidth=1;entryX=0.5;entryY=1;entryDx=0;entryDy=0;" parent="1" source="98" target="229" edge="1">
          <mxGeometry relative="1" as="geometry">
            <mxPoint x="510" y="332" as="sourcePoint" />
            <mxPoint x="470" y="332" as="targetPoint" />
            <Array as="points">
              <mxPoint x="575" y="270" />
              <mxPoint x="385" y="270" />
            </Array>
          </mxGeometry>
        </mxCell>
        <mxCell id="232" value="«app»&lt;br&gt;&lt;b&gt;3rd-party Apps&lt;/b&gt;" style="html=1;dropTarget=0;fontSize=15;" parent="1" vertex="1">
          <mxGeometry x="760" y="180" width="150" height="70" as="geometry" />
        </mxCell>
        <mxCell id="233" value="" style="shape=module;jettyWidth=8;jettyHeight=4;fontSize=15;" parent="232" vertex="1">
          <mxGeometry x="1" width="20" height="20" relative="1" as="geometry">
            <mxPoint x="-27" y="7" as="offset" />
          </mxGeometry>
        </mxCell>
        <mxCell id="234" style="edgeStyle=none;html=1;exitX=0.5;exitY=0;exitDx=0;exitDy=0;fontSize=18;startArrow=classic;startFill=1;endArrow=none;endFill=0;strokeColor=#00CC00;strokeWidth=1;entryX=0.5;entryY=1;entryDx=0;entryDy=0;" parent="1" source="120" target="232" edge="1">
          <mxGeometry relative="1" as="geometry">
            <mxPoint x="920" y="335" as="sourcePoint" />
            <mxPoint x="955" y="335" as="targetPoint" />
          </mxGeometry>
        </mxCell>
        <mxCell id="235" value="«native»&lt;br&gt;&lt;b&gt;HMI/Perso&lt;/b&gt;" style="html=1;dropTarget=0;fontSize=15;" parent="1" vertex="1">
          <mxGeometry x="120" y="180" width="150" height="70" as="geometry" />
        </mxCell>
        <mxCell id="236" value="" style="shape=module;jettyWidth=8;jettyHeight=4;fontSize=15;" parent="235" vertex="1">
          <mxGeometry x="1" width="20" height="20" relative="1" as="geometry">
            <mxPoint x="-27" y="7" as="offset" />
          </mxGeometry>
        </mxCell>
        <mxCell id="237" style="edgeStyle=none;html=1;exitX=0.25;exitY=0;exitDx=0;exitDy=0;fontSize=18;startArrow=classic;startFill=1;endArrow=none;endFill=0;strokeColor=#3333FF;strokeWidth=1;entryX=0.5;entryY=1;entryDx=0;entryDy=0;" parent="1" source="98" target="235" edge="1">
          <mxGeometry relative="1" as="geometry">
            <mxPoint x="547.5" y="297" as="sourcePoint" />
            <mxPoint x="395" y="260" as="targetPoint" />
            <Array as="points">
              <mxPoint x="538" y="280" />
              <mxPoint x="195" y="280" />
            </Array>
          </mxGeometry>
        </mxCell>
        <mxCell id="238" value="&lt;b&gt;Change&lt;br&gt;Component&lt;br&gt;&lt;/b&gt;" style="html=1;dropTarget=0;fontSize=15;fillColor=#dae8fc;strokeColor=#6c8ebf;" parent="1" vertex="1">
          <mxGeometry x="1200" y="620" width="124" height="70" as="geometry" />
        </mxCell>
        <mxCell id="239" value="" style="shape=module;jettyWidth=8;jettyHeight=4;fontSize=15;" parent="238" vertex="1">
          <mxGeometry x="1" width="20" height="20" relative="1" as="geometry">
            <mxPoint x="-27" y="7" as="offset" />
          </mxGeometry>
        </mxCell>
        <mxCell id="246" style="edgeStyle=none;sketch=0;hachureGap=4;jiggle=2;curveFitting=1;html=1;exitX=0.75;exitY=1;exitDx=0;exitDy=0;entryX=0.5;entryY=0;entryDx=0;entryDy=0;strokeColor=#FF0000;fontFamily=Architects Daughter;fontSource=https%3A%2F%2Ffonts.googleapis.com%2Fcss%3Ffamily%3DArchitects%2BDaughter;fontSize=16;startArrow=none;startFill=0;endArrow=classic;endFill=1;" parent="1" source="240" target="197" edge="1">
          <mxGeometry relative="1" as="geometry">
            <Array as="points">
              <mxPoint x="983" y="960" />
              <mxPoint x="1115" y="960" />
            </Array>
          </mxGeometry>
        </mxCell>
        <mxCell id="240" value="«backend»&lt;br&gt;&lt;b&gt;BMWBadge&lt;br&gt;Service&lt;br&gt;&lt;/b&gt;" style="html=1;dropTarget=0;fontSize=15;verticalAlign=middle;fillColor=#dae8fc;strokeColor=#6c8ebf;movable=1;resizable=1;rotatable=1;deletable=1;editable=1;connectable=1;" parent="1" vertex="1">
          <mxGeometry x="870" y="710" width="150" height="70" as="geometry" />
        </mxCell>
        <mxCell id="241" value="" style="shape=module;jettyWidth=8;jettyHeight=4;fontSize=15;movable=1;resizable=1;rotatable=1;deletable=1;editable=1;connectable=1;" parent="240" vertex="1">
          <mxGeometry x="1" width="20" height="20" relative="1" as="geometry">
            <mxPoint x="-27" y="7" as="offset" />
          </mxGeometry>
        </mxCell>
        <mxCell id="242" value="" style="edgeStyle=none;hachureGap=4;exitX=0.5;exitY=1;exitDx=0;exitDy=0;fontFamily=Architects Daughter;fontSource=https%3A%2F%2Ffonts.googleapis.com%2Fcss%3Ffamily%3DArchitects%2BDaughter;fontSize=16;startArrow=none;startFill=0;endArrow=classic;endFill=1;align=right;html=1;strokeColor=#FF0000;entryX=0.5;entryY=0;entryDx=0;entryDy=0;" parent="1" source="98" target="43" edge="1">
          <mxGeometry relative="1" as="geometry">
            <Array as="points">
              <mxPoint x="575" y="660" />
              <mxPoint x="485" y="660" />
            </Array>
          </mxGeometry>
        </mxCell>
        <mxCell id="243" style="edgeStyle=none;sketch=0;hachureGap=4;jiggle=2;curveFitting=1;html=1;exitX=0.5;exitY=1;exitDx=0;exitDy=0;fontFamily=Architects Daughter;fontSource=https%3A%2F%2Ffonts.googleapis.com%2Fcss%3Ffamily%3DArchitects%2BDaughter;fontSize=16;startArrow=none;startFill=0;endArrow=classic;endFill=1;strokeColor=#FF0000;entryX=0.5;entryY=1;entryDx=0;entryDy=0;" parent="1" source="120" target="256" edge="1">
          <mxGeometry relative="1" as="geometry">
            <Array as="points">
              <mxPoint x="835" y="810" />
              <mxPoint x="715" y="810" />
            </Array>
          </mxGeometry>
        </mxCell>
        <mxCell id="247" style="edgeStyle=none;sketch=0;hachureGap=4;jiggle=2;curveFitting=1;html=1;exitX=0.25;exitY=1;exitDx=0;exitDy=0;entryX=0.5;entryY=0;entryDx=0;entryDy=0;strokeColor=#FF0000;fontFamily=Architects Daughter;fontSource=https%3A%2F%2Ffonts.googleapis.com%2Fcss%3Ffamily%3DArchitects%2BDaughter;fontSize=16;startArrow=none;startFill=0;endArrow=classic;endFill=1;" parent="1" source="43" target="252" edge="1">
          <mxGeometry relative="1" as="geometry">
            <Array as="points">
              <mxPoint x="448" y="960" />
              <mxPoint x="935" y="960" />
            </Array>
          </mxGeometry>
        </mxCell>
        <mxCell id="249" value="&lt;b&gt;Exists&lt;br&gt;Component&lt;br&gt;&lt;/b&gt;" style="html=1;dropTarget=0;fontSize=15;" parent="1" vertex="1">
          <mxGeometry x="1200" y="540" width="124" height="70" as="geometry" />
        </mxCell>
        <mxCell id="250" value="" style="shape=module;jettyWidth=8;jettyHeight=4;fontSize=15;" parent="249" vertex="1">
          <mxGeometry x="1" width="20" height="20" relative="1" as="geometry">
            <mxPoint x="-27" y="7" as="offset" />
          </mxGeometry>
        </mxCell>
        <mxCell id="252" value="«backend»&lt;br&gt;&lt;b&gt;M2&lt;/b&gt;" style="html=1;dropTarget=0;fontSize=15;fillColor=#dae8fc;strokeColor=#6c8ebf;" parent="1" vertex="1">
          <mxGeometry x="860" y="1085" width="150" height="70" as="geometry" />
        </mxCell>
        <mxCell id="253" value="" style="shape=module;jettyWidth=8;jettyHeight=4;fontSize=15;" parent="252" vertex="1">
          <mxGeometry x="1" width="20" height="20" relative="1" as="geometry">
            <mxPoint x="-27" y="7" as="offset" />
          </mxGeometry>
        </mxCell>
        <mxCell id="139" value="&lt;b&gt;APIM GW&lt;/b&gt;" style="html=1;dropTarget=0;fontSize=15;horizontal=0;" parent="1" vertex="1">
          <mxGeometry x="450" y="1050" width="40" height="160" as="geometry" />
        </mxCell>
        <mxCell id="140" value="" style="shape=module;jettyWidth=8;jettyHeight=4;fontSize=15;" parent="139" vertex="1">
          <mxGeometry x="1" width="20" height="20" relative="1" as="geometry">
            <mxPoint x="-27" y="7" as="offset" />
          </mxGeometry>
        </mxCell>
        <mxCell id="195" value="&lt;b&gt;CIS GW&lt;br&gt;&lt;/b&gt;" style="html=1;dropTarget=0;fontSize=15;horizontal=0;" parent="1" vertex="1">
          <mxGeometry x="760" y="1050" width="40" height="160" as="geometry" />
        </mxCell>
        <mxCell id="196" value="" style="shape=module;jettyWidth=8;jettyHeight=4;fontSize=15;" parent="195" vertex="1">
          <mxGeometry x="1" width="20" height="20" relative="1" as="geometry">
            <mxPoint x="-27" y="7" as="offset" />
          </mxGeometry>
        </mxCell>
        <mxCell id="172" style="edgeStyle=none;html=1;exitX=1;exitY=0.5;exitDx=0;exitDy=0;fontSize=18;startArrow=none;startFill=0;strokeColor=#FF0000;strokeWidth=1;" parent="1" source="148" target="143" edge="1">
          <mxGeometry relative="1" as="geometry" />
        </mxCell>
        <mxCell id="254" value="" style="edgeStyle=none;html=1;exitX=1;exitY=0.5;exitDx=0;exitDy=0;entryX=0;entryY=0.5;entryDx=0;entryDy=0;fontSize=18;startArrow=none;startFill=0;strokeColor=#FF0000;strokeWidth=1;endArrow=none;" parent="1" source="143" target="252" edge="1">
          <mxGeometry relative="1" as="geometry">
            <mxPoint x="670" y="1120.0000000000005" as="sourcePoint" />
            <mxPoint x="1040" y="1120.0000000000005" as="targetPoint" />
            <Array as="points" />
          </mxGeometry>
        </mxCell>
        <mxCell id="255" style="edgeStyle=none;hachureGap=4;html=1;exitX=0.5;exitY=1;exitDx=0;exitDy=0;entryX=0.5;entryY=1;entryDx=0;entryDy=0;fontFamily=Architects Daughter;fontSource=https%3A%2F%2Ffonts.googleapis.com%2Fcss%3Ffamily%3DArchitects%2BDaughter;fontSize=16;strokeColor=#FF0000;" parent="1" source="143" target="197" edge="1">
          <mxGeometry relative="1" as="geometry">
            <Array as="points">
              <mxPoint x="595" y="1198" />
              <mxPoint x="1115" y="1198" />
            </Array>
          </mxGeometry>
        </mxCell>
        <mxCell id="271" style="edgeStyle=none;html=1;exitX=0;exitY=0.5;exitDx=0;exitDy=0;entryX=1;entryY=0.5;entryDx=0;entryDy=0;strokeColor=#FF0000;" parent="1" source="256" target="43" edge="1">
          <mxGeometry relative="1" as="geometry" />
        </mxCell>
        <mxCell id="272" style="edgeStyle=none;html=1;exitX=1;exitY=0.5;exitDx=0;exitDy=0;entryX=0;entryY=0.5;entryDx=0;entryDy=0;strokeColor=#FF0000;" parent="1" source="256" target="240" edge="1">
          <mxGeometry relative="1" as="geometry" />
        </mxCell>
        <mxCell id="256" value="«backend»&lt;br&gt;&lt;b&gt;Task&lt;br&gt;Service&lt;br&gt;&lt;/b&gt;" style="html=1;dropTarget=0;fontSize=15;verticalAlign=middle;fillColor=#f8cecc;strokeColor=#b85450;movable=1;resizable=1;rotatable=1;deletable=1;editable=1;connectable=1;" parent="1" vertex="1">
          <mxGeometry x="640" y="710" width="150" height="70" as="geometry" />
        </mxCell>
        <mxCell id="257" value="" style="shape=module;jettyWidth=8;jettyHeight=4;fontSize=15;movable=1;resizable=1;rotatable=1;deletable=1;editable=1;connectable=1;" parent="256" vertex="1">
          <mxGeometry x="1" width="20" height="20" relative="1" as="geometry">
            <mxPoint x="-27" y="7" as="offset" />
          </mxGeometry>
        </mxCell>
        <mxCell id="266" style="edgeStyle=none;html=1;exitX=0.5;exitY=1;exitDx=0;exitDy=0;entryX=0.5;entryY=0;entryDx=0;entryDy=0;strokeColor=#FF0000;" parent="1" source="98" target="256" edge="1">
          <mxGeometry relative="1" as="geometry">
            <Array as="points">
              <mxPoint x="575" y="660" />
              <mxPoint x="715" y="660" />
            </Array>
          </mxGeometry>
        </mxCell>
        <mxCell id="267" style="edgeStyle=none;html=1;exitX=0.5;exitY=1;exitDx=0;exitDy=0;entryX=0.5;entryY=0;entryDx=0;entryDy=0;strokeColor=#FF0000;" parent="1" source="98" target="240" edge="1">
          <mxGeometry relative="1" as="geometry">
            <Array as="points">
              <mxPoint x="575" y="660" />
              <mxPoint x="945" y="660" />
            </Array>
          </mxGeometry>
        </mxCell>
        <mxCell id="268" style="edgeStyle=none;html=1;exitX=0.5;exitY=1;exitDx=0;exitDy=0;entryX=0.5;entryY=1;entryDx=0;entryDy=0;strokeColor=#FF0000;" parent="1" source="120" target="240" edge="1">
          <mxGeometry relative="1" as="geometry">
            <Array as="points">
              <mxPoint x="835" y="810" />
              <mxPoint x="945" y="810" />
            </Array>
          </mxGeometry>
        </mxCell>
        <mxCell id="269" style="edgeStyle=none;html=1;exitX=0.5;exitY=1;exitDx=0;exitDy=0;entryX=0.5;entryY=1;entryDx=0;entryDy=0;strokeColor=#FF0000;" parent="1" source="120" target="43" edge="1">
          <mxGeometry relative="1" as="geometry">
            <Array as="points">
              <mxPoint x="835" y="810" />
              <mxPoint x="485" y="810" />
            </Array>
          </mxGeometry>
        </mxCell>
      </root>
    </mxGraphModel>
  </diagram>
</mxfile>
